<?xml version="1.0" encoding="UTF-8" ?>
<!DOCTYPE svg PUBLIC "-//W3C//DTD SVG 1.1//EN" "http://www.w3.org/Graphics/SVG/1.1/DTD/svg11.dtd">
<svg width="1000pt" height="500pt" viewBox="0 0 1000 500" version="1.1" xmlns="http://www.w3.org/2000/svg">
<g id="#e5bfffff">
<path fill="#e5bfff" opacity="1.00" d=" M 0.00 0.00 L 0.28 0.00 C 0.21 0.07 0.07 0.20 0.00 0.27 L 0.00 0.00 Z" />
<path fill="#e5bfff" opacity="1.00" d=" M 425.71 37.26 C 431.19 37.34 436.66 37.34 442.13 37.27 L 441.47 37.60 C 436.48 37.71 431.48 37.76 426.49 37.55 L 425.71 37.26 Z" />
<path fill="#e5bfff" opacity="1.00" d=" M 598.90 148.41 C 604.71 148.33 610.53 148.19 616.35 148.44 L 615.56 148.57 C 610.52 148.78 605.47 148.70 600.44 148.53 C 600.05 148.50 599.28 148.44 598.90 148.41 Z" />
<path fill="#e5bfff" opacity="1.00" d=" M 434.96 234.94 C 435.06 234.99 435.25 235.09 435.35 235.14 C 435.25 235.09 435.06 234.99 434.96 234.94 Z" />
<path fill="#e5bfff" opacity="1.00" d=" M 435.35 235.14 C 440.97 235.34 446.60 235.34 452.22 235.41 C 451.84 235.46 451.08 235.55 450.70 235.59 C 445.82 235.70 440.92 235.82 436.05 235.46 L 435.35 235.14 Z" />
<path fill="#e5bfff" opacity="1.00" d=" M 304.43 257.39 C 320.27 257.20 336.12 257.56 351.96 257.25 L 351.52 258.03 C 335.57 258.12 319.62 258.30 303.68 257.64 L 304.43 257.39 Z" />
<path fill="#e5bfff" opacity="1.00" d=" M 525.60 259.39 C 538.61 258.37 551.71 259.02 564.74 259.29 L 565.51 259.40 C 555.39 260.64 545.17 260.20 535.00 260.34 C 532.13 260.26 529.15 260.60 526.40 259.63 L 525.60 259.39 Z" />
<path fill="#e5bfff" opacity="1.00" d=" M 722.40 348.97 C 723.09 350.13 723.82 351.26 724.56 352.41 C 727.33 352.64 730.11 352.78 732.90 352.81 L 732.87 353.65 C 704.58 353.95 676.28 353.55 648.00 354.20 C 601.35 355.40 554.64 354.16 508.00 355.71 C 500.84 356.11 493.79 354.61 486.66 354.52 C 486.81 354.17 487.11 353.47 487.26 353.12 C 499.50 354.11 511.75 353.11 524.00 353.34 C 551.34 353.32 578.67 353.13 606.01 353.07 C 613.35 353.06 620.65 352.25 627.99 352.31 C 653.66 352.42 679.33 352.19 705.00 352.09 C 710.60 352.05 716.22 352.50 721.79 351.78 C 721.94 351.08 722.25 349.68 722.40 348.97 Z" />
<path fill="#e5bfff" opacity="1.00" d=" M 325.17 443.19 C 328.28 443.14 331.40 443.27 334.51 443.46 C 335.00 443.70 335.98 444.17 336.47 444.40 C 332.56 445.00 328.58 444.89 324.74 443.95 L 325.17 443.19 Z" />
</g>
<g id="#ffffffff">
<path fill="#ffffff" opacity="1.00" d=" M 426.49 37.55 C 431.48 37.76 436.48 37.71 441.47 37.60 C 440.42 40.46 438.30 43.72 440.41 46.63 C 475.66 106.39 510.90 166.16 546.04 225.98 C 552.41 237.00 559.21 247.82 564.74 259.29 C 551.71 259.02 538.61 258.37 525.60 259.39 C 523.09 259.33 520.59 259.27 518.09 259.22 C 514.82 255.19 512.55 250.50 509.89 246.08 C 490.22 212.74 470.61 179.37 450.97 146.01 C 446.94 139.12 442.92 132.21 438.65 125.45 C 437.33 123.12 436.29 120.61 434.61 118.52 C 433.37 118.14 432.82 119.32 432.25 120.15 C 409.00 159.89 385.52 199.50 362.21 239.21 C 358.68 245.16 354.98 251.01 351.96 257.25 C 336.12 257.56 320.27 257.20 304.43 257.39 C 306.79 251.71 310.16 246.53 313.14 241.16 C 351.18 176.26 389.42 111.45 427.60 46.63 C 429.70 43.71 427.63 40.39 426.49 37.55 Z" />
<path fill="#ffffff" opacity="1.00" d=" M 600.44 148.53 C 605.47 148.70 610.52 148.78 615.56 148.57 C 614.76 151.26 612.60 154.13 613.99 156.98 C 616.54 162.56 620.02 167.65 622.93 173.04 C 655.99 231.75 689.39 290.25 722.40 348.97 C 722.25 349.68 721.94 351.08 721.79 351.78 C 716.22 352.50 710.60 352.05 705.00 352.09 C 679.33 352.19 653.66 352.42 627.99 352.31 C 620.65 352.25 613.35 353.06 606.01 353.07 C 578.67 353.13 551.34 353.32 524.00 353.34 C 511.75 353.11 499.50 354.11 487.26 353.12 C 488.35 350.37 489.57 347.67 491.12 345.15 C 497.37 334.88 503.45 324.51 509.47 314.11 C 511.97 314.09 514.45 313.69 516.96 313.64 C 533.32 313.88 549.69 313.59 566.05 313.63 C 594.92 312.34 623.82 313.04 652.71 312.62 C 652.79 312.27 652.95 311.57 653.03 311.21 C 651.28 306.51 648.48 302.32 646.06 297.95 C 626.00 262.65 606.12 227.24 586.01 191.97 C 585.10 190.16 583.71 188.02 585.09 186.07 C 590.32 176.46 596.36 167.30 601.73 157.77 C 603.87 154.75 601.67 151.40 600.44 148.53 Z" />
<path fill="#ffffff" opacity="1.00" d=" M 436.05 235.46 C 440.92 235.82 445.82 235.70 450.70 235.59 C 449.81 238.47 447.50 241.65 449.34 244.64 C 454.81 255.29 461.85 265.10 466.86 276.00 C 463.10 283.39 458.45 290.30 454.63 297.66 C 434.92 332.20 415.70 367.03 395.69 401.40 C 395.48 402.11 395.28 402.82 395.09 403.54 C 418.72 404.41 442.37 404.04 466.00 404.68 C 490.73 405.34 515.47 404.72 540.21 405.05 C 544.55 412.05 548.32 419.37 552.53 426.44 C 555.80 432.51 559.65 438.30 562.28 444.71 C 559.52 444.91 556.78 445.37 554.02 445.36 C 531.02 445.02 508.01 444.89 485.00 444.94 C 459.36 443.74 433.67 444.42 408.01 444.17 C 392.66 443.92 377.31 444.20 361.96 443.90 C 352.82 443.34 343.67 443.05 334.51 443.46 C 331.40 443.27 328.28 443.14 325.17 443.19 C 334.08 425.66 344.42 408.92 353.74 391.61 C 360.14 380.96 366.01 370.02 372.24 359.28 C 392.20 323.90 412.28 288.60 432.21 253.20 C 434.09 249.78 436.61 246.61 437.65 242.79 C 437.65 240.26 436.64 237.88 436.05 235.46 Z" />
</g>
<g id="#ff02ffff">
<path fill="#ff02ff" opacity="1.00" d=" M 442.13 37.27 C 442.55 37.03 443.37 36.54 443.79 36.29 C 465.26 72.76 486.72 109.25 508.21 145.72 C 530.42 183.68 553.08 221.38 574.86 259.59 C 571.74 259.71 568.59 259.97 565.51 259.40 L 564.74 259.29 C 559.21 247.82 552.41 237.00 546.04 225.98 C 510.90 166.16 475.66 106.39 440.41 46.63 C 438.30 43.72 440.42 40.46 441.47 37.60 L 442.13 37.27 Z" />
<path fill="#ff02ff" opacity="1.00" d=" M 432.25 120.15 C 432.82 119.32 433.37 118.14 434.61 118.52 C 436.29 120.61 437.33 123.12 438.65 125.45 C 436.72 128.37 434.92 131.37 433.24 134.44 C 410.28 173.69 387.07 212.81 364.09 252.06 C 362.83 254.14 361.65 256.36 359.80 258.01 C 357.11 258.87 354.25 258.37 351.52 258.03 L 351.96 257.25 C 354.98 251.01 358.68 245.16 362.21 239.21 C 385.52 199.50 409.00 159.89 432.25 120.15 Z" />
<path fill="#ff02ff" opacity="1.00" d=" M 616.35 148.44 C 616.73 148.37 617.49 148.23 617.87 148.15 C 619.82 150.64 621.31 153.43 622.80 156.20 C 658.09 218.58 693.38 280.96 728.67 343.34 C 730.31 346.38 732.57 349.25 732.90 352.81 C 730.11 352.78 727.33 352.64 724.56 352.41 C 723.82 351.26 723.09 350.13 722.40 348.97 C 689.39 290.25 655.99 231.75 622.93 173.04 C 620.02 167.65 616.54 162.56 613.99 156.98 C 612.60 154.13 614.76 151.26 615.56 148.57 L 616.35 148.44 Z" />
<path fill="#ff02ff" opacity="1.00" d=" M 452.22 235.41 L 452.99 235.31 C 460.59 246.81 466.42 259.44 473.99 270.98 C 475.40 273.04 476.57 275.78 475.08 278.14 C 454.83 313.87 434.62 349.62 414.39 385.37 C 411.52 390.72 408.18 395.84 405.79 401.43 C 402.81 403.39 398.40 404.29 395.69 401.40 C 415.70 367.03 434.92 332.20 454.63 297.66 C 458.45 290.30 463.10 283.39 466.86 276.00 C 461.85 265.10 454.81 255.29 449.34 244.64 C 447.50 241.65 449.81 238.47 450.70 235.59 C 451.08 235.55 451.84 235.46 452.22 235.41 Z" />
<path fill="#ff02ff" opacity="1.00" d=" M 539.72 404.38 C 543.01 404.19 546.31 404.24 549.61 404.47 C 557.04 418.00 564.68 431.41 572.44 444.76 C 569.18 446.44 565.57 445.96 562.28 444.71 C 559.65 438.30 555.80 432.51 552.53 426.44 C 548.32 419.37 544.55 412.05 540.21 405.05 L 539.72 404.38 Z" />
</g>
<g id="#03ffffff">
<path fill="#03ffff" opacity="1.00" d=" M 422.03 40.04 C 422.94 38.92 423.89 36.36 425.71 37.26 L 426.49 37.55 C 427.63 40.39 429.70 43.71 427.60 46.63 C 389.42 111.45 351.18 176.26 313.14 241.16 C 310.16 246.53 306.79 251.71 304.43 257.39 L 303.68 257.64 C 300.89 258.94 297.77 258.36 294.84 258.09 C 295.51 256.10 296.27 254.14 297.33 252.32 C 314.50 222.27 332.35 192.62 349.78 162.72 C 373.89 121.84 397.96 80.94 422.03 40.04 Z" />
<path fill="#03ffff" opacity="1.00" d=" M 438.65 125.45 C 442.92 132.21 446.94 139.12 450.97 146.01 C 470.61 179.37 490.22 212.74 509.89 246.08 C 512.55 250.50 514.82 255.19 518.09 259.22 C 520.59 259.27 523.09 259.33 525.60 259.39 L 526.40 259.63 C 520.43 259.73 514.46 259.68 508.50 259.50 C 485.80 221.46 463.48 183.18 440.95 145.04 C 438.60 141.35 437.15 136.83 433.24 134.44 C 434.92 131.37 436.72 128.37 438.65 125.45 Z" />
<path fill="#03ffff" opacity="1.00" d=" M 598.14 148.35 L 598.90 148.41 C 599.28 148.44 600.05 148.50 600.44 148.53 C 601.67 151.40 603.87 154.75 601.73 157.77 C 596.36 167.30 590.32 176.46 585.09 186.07 C 583.71 188.02 585.10 190.16 586.01 191.97 C 606.12 227.24 626.00 262.65 646.06 297.95 C 648.48 302.32 651.28 306.51 653.03 311.21 C 649.77 311.38 646.54 311.06 643.31 310.68 C 638.08 299.57 631.47 289.18 625.55 278.43 C 610.65 252.03 595.76 225.63 580.79 199.27 C 578.70 195.57 576.30 192.01 574.81 188.00 C 576.93 182.98 580.18 178.56 582.83 173.82 C 588.00 165.38 592.57 156.55 598.14 148.35 Z" />
<path fill="#03ffff" opacity="1.00" d=" M 433.66 234.21 C 433.98 234.39 434.63 234.76 434.96 234.94 C 435.06 234.99 435.25 235.09 435.35 235.14 L 436.05 235.46 C 436.64 237.88 437.65 240.26 437.65 242.79 C 436.61 246.61 434.09 249.78 432.21 253.20 C 412.28 288.60 392.20 323.90 372.24 359.28 C 366.01 370.02 360.14 380.96 353.74 391.61 C 344.42 408.92 334.08 425.66 325.17 443.19 L 324.74 443.95 C 321.80 444.22 318.85 444.19 315.93 443.83 C 316.50 441.62 317.34 439.50 318.51 437.54 C 356.97 369.81 395.11 301.88 433.66 234.21 Z" />
<path fill="#03ffff" opacity="1.00" d=" M 501.57 312.68 C 504.22 313.06 506.89 313.32 509.47 314.11 C 503.45 324.51 497.37 334.88 491.12 345.15 C 489.57 347.67 488.35 350.37 487.26 353.12 C 487.11 353.47 486.81 354.17 486.66 354.52 C 483.46 354.80 480.24 354.77 477.04 354.56 C 477.54 352.98 478.07 351.38 478.92 349.94 C 483.51 342.19 488.10 334.43 492.68 326.67 C 495.54 321.94 497.90 316.86 501.57 312.68 Z" />
</g>
<g id="#dacbffff">
<path fill="#dacbff" opacity="1.00" d=" M 643.31 310.68 C 646.54 311.06 649.77 311.38 653.03 311.21 C 652.95 311.57 652.79 312.27 652.71 312.62 C 623.82 313.04 594.92 312.34 566.05 313.63 C 549.69 313.59 533.32 313.88 516.96 313.64 C 514.45 313.69 511.97 314.09 509.47 314.11 C 506.89 313.32 504.22 313.06 501.57 312.68 L 500.80 312.53 C 538.85 312.02 576.93 311.10 615.00 311.20 C 624.44 311.05 633.90 311.54 643.31 310.68 Z" />
<path fill="#dacbff" opacity="1.00" d=" M 334.51 443.46 C 343.67 443.05 352.82 443.34 361.96 443.90 C 377.31 444.20 392.66 443.92 408.01 444.17 C 433.67 444.42 459.36 443.74 485.00 444.94 C 508.01 444.89 531.02 445.02 554.02 445.36 C 556.78 445.37 559.52 444.91 562.28 444.71 C 565.57 445.96 569.18 446.44 572.44 444.76 L 573.08 444.53 C 572.96 445.04 572.72 446.07 572.60 446.58 C 552.07 446.65 531.51 447.13 511.00 446.07 C 483.33 446.10 455.66 445.81 428.00 445.79 C 417.67 445.64 407.33 446.00 397.04 445.05 C 379.69 444.78 362.34 445.07 344.99 444.80 C 342.16 444.67 339.22 445.15 336.47 444.40 C 335.98 444.17 335.00 443.70 334.51 443.46 Z" />
</g>
<g id="#efcbffff">
<path fill="#efcbff" opacity="1.00" d=" M 395.09 403.54 C 395.28 402.82 395.48 402.11 395.69 401.40 C 398.40 404.29 402.81 403.39 405.79 401.43 C 415.77 403.16 425.91 402.76 435.99 402.81 C 464.33 402.59 492.66 403.08 521.00 403.07 C 527.24 403.24 533.58 403.07 539.72 404.38 L 540.21 405.05 C 515.47 404.72 490.73 405.34 466.00 404.68 C 442.37 404.04 418.72 404.41 395.09 403.54 Z" />
</g>
</svg>
