<?xml version="1.0" encoding="UTF-8" ?>
<!DOCTYPE svg PUBLIC "-//W3C//DTD SVG 1.1//EN" "http://www.w3.org/Graphics/SVG/1.1/DTD/svg11.dtd">
<svg width="1000pt" height="500pt" viewBox="0 0 1000 500" version="1.1" xmlns="http://www.w3.org/2000/svg">
<g id="#ffffffff">
</g>
<g id="#000000ff">
<path fill="#000000" opacity="1.00" d=" M 412.96 27.16 C 414.66 29.97 416.34 32.80 418.00 35.64 C 453.10 95.08 488.03 154.61 523.04 214.10 C 533.21 231.42 543.58 248.63 553.12 266.31 C 537.41 266.42 521.70 266.28 505.99 266.30 C 504.73 266.09 503.13 266.71 502.19 265.61 C 473.92 218.24 446.25 170.49 418.10 123.04 L 417.47 123.62 L 417.89 122.80 C 416.36 119.89 414.63 117.11 413.00 114.26 C 384.01 163.26 355.19 212.37 326.22 261.38 C 325.68 262.43 325.08 263.55 325.17 264.77 C 328.34 264.58 331.51 264.27 334.69 264.39 C 334.27 265.06 333.69 265.45 332.95 265.57 C 317.30 265.04 301.63 265.49 285.98 265.19 C 281.87 264.57 277.70 264.70 273.56 264.71 C 291.70 232.05 311.17 200.15 329.96 167.86 C 355.93 123.70 381.97 79.58 408.01 35.47 C 409.65 32.69 411.28 29.91 412.96 27.16 Z" />
<path fill="#000000" opacity="1.00" d=" M 598.68 146.07 C 600.84 148.69 602.20 151.86 603.96 154.75 C 643.60 224.98 683.48 295.08 722.94 365.41 C 718.88 365.48 714.83 365.50 710.78 365.63 C 655.85 365.87 600.92 366.91 545.98 366.86 C 523.36 367.49 500.73 367.47 478.10 367.64 C 474.75 367.59 471.40 367.58 468.06 367.52 C 476.63 352.71 485.48 338.05 494.03 323.22 C 541.87 322.05 589.75 322.65 637.59 321.72 C 640.84 321.73 644.08 321.68 647.33 321.59 C 623.03 277.83 597.97 234.48 573.48 190.82 C 572.69 188.42 575.19 186.26 576.11 184.14 C 581.93 174.49 587.53 164.71 593.39 155.08 C 595.14 152.07 596.77 148.99 598.68 146.07 Z" />
<path fill="#000000" opacity="1.00" d=" M 417.81 247.31 C 419.45 244.51 420.83 241.53 422.91 239.02 C 424.71 241.88 426.33 244.86 428.02 247.79 C 434.26 258.93 440.63 270.00 446.94 281.11 C 447.94 282.56 447.91 284.38 446.88 285.82 C 424.78 324.82 402.72 363.84 380.60 402.83 C 377.55 408.34 374.22 413.70 371.47 419.37 C 374.82 419.44 378.18 419.47 381.53 419.47 C 408.04 419.85 434.54 419.60 461.04 419.76 C 470.91 420.67 480.85 420.16 490.76 420.42 C 502.56 420.61 514.37 420.66 526.17 420.87 C 534.44 435.68 543.24 450.22 551.10 465.25 C 541.72 465.15 532.31 465.69 522.97 464.77 C 486.63 464.35 450.30 464.31 413.96 464.27 C 398.70 463.23 383.37 463.78 368.07 463.44 C 347.70 463.09 327.32 463.63 306.96 463.17 C 303.33 462.71 299.66 462.65 296.01 462.60 C 336.42 390.73 377.14 319.04 417.81 247.31 Z" />
</g>
<g id="#00ffffff">
<path fill="#00ffff" opacity="1.00" d=" M 359.28 101.19 C 373.90 76.62 388.14 51.82 403.00 27.40 C 404.75 30.04 406.38 32.75 408.01 35.47 C 381.97 79.58 355.93 123.70 329.96 167.86 C 311.17 200.15 291.70 232.05 273.56 264.71 C 270.34 264.68 267.12 264.69 263.90 264.68 C 272.94 247.09 283.48 230.30 293.38 213.18 C 315.33 175.84 337.28 138.50 359.28 101.19 Z" />
<path fill="#00ffff" opacity="1.00" d=" M 417.47 123.62 L 418.10 123.04 C 446.25 170.49 473.92 218.24 502.19 265.61 C 498.79 265.84 495.39 265.80 492.00 265.61 C 465.80 220.72 439.37 175.96 412.95 131.21 C 414.43 128.67 415.91 126.12 417.47 123.62 Z" />
<path fill="#00ffff" opacity="1.00" d=" M 588.65 146.12 C 590.63 148.46 592.23 151.14 593.25 154.03 L 593.39 155.08 C 587.53 164.71 581.93 174.49 576.11 184.14 C 575.19 186.26 572.69 188.42 573.48 190.82 C 597.97 234.48 623.03 277.83 647.33 321.59 C 644.08 321.68 640.84 321.73 637.59 321.72 C 617.16 285.42 596.55 249.22 576.02 212.98 C 571.80 205.22 567.06 197.74 563.13 189.84 C 571.16 175.04 580.21 160.72 588.65 146.12 Z" />
<path fill="#00ffff" opacity="1.00" d=" M 412.56 239.31 C 415.11 241.03 415.92 244.83 417.81 247.31 C 377.14 319.04 336.42 390.73 296.01 462.60 C 299.66 462.65 303.33 462.71 306.96 463.17 C 299.97 463.84 293.01 462.75 286.04 462.52 C 326.64 390.65 367.27 318.80 408.01 247.01 C 409.50 244.43 410.86 241.76 412.56 239.31 Z" />
<path fill="#00ffff" opacity="1.00" d=" M 484.13 323.23 C 487.43 323.11 490.73 323.08 494.03 323.22 C 485.48 338.05 476.63 352.71 468.06 367.52 C 471.40 367.58 474.75 367.59 478.10 367.64 C 471.44 368.00 464.77 367.45 458.10 367.56 C 466.71 352.74 475.52 338.04 484.13 323.23 Z" />
</g>
<g id="#ff00ffff">
<path fill="#ff00ff" opacity="1.00" d=" M 418.00 35.64 C 419.51 32.93 420.77 29.99 422.99 27.75 C 424.76 29.83 426.00 32.27 427.36 34.62 C 452.20 76.81 477.06 118.98 501.84 161.20 C 521.26 194.47 541.19 227.43 560.20 260.93 C 561.21 262.70 562.13 264.52 562.97 266.37 C 559.68 266.36 556.40 266.33 553.12 266.31 C 543.58 248.63 533.21 231.42 523.04 214.10 C 488.03 154.61 453.10 95.08 418.00 35.64 Z" />
<path fill="#ff00ff" opacity="1.00" d=" M 326.22 261.38 C 355.19 212.37 384.01 163.26 413.00 114.26 C 414.63 117.11 416.36 119.89 417.89 122.80 L 417.47 123.62 C 415.91 126.12 414.43 128.67 412.95 131.21 C 387.51 174.29 362.14 217.42 336.68 260.49 C 336.03 261.73 335.51 263.03 335.15 264.39 L 334.69 264.39 C 331.51 264.27 328.34 264.58 325.17 264.77 C 325.08 263.55 325.68 262.43 326.22 261.38 Z" />
<path fill="#ff00ff" opacity="1.00" d=" M 603.96 154.75 C 604.86 151.48 607.12 148.81 608.81 145.92 C 649.00 216.54 688.80 287.38 728.86 358.08 C 730.25 360.48 731.57 362.93 732.83 365.41 C 725.47 365.37 718.13 366.06 710.78 365.63 C 714.83 365.50 718.88 365.48 722.94 365.41 C 683.48 295.08 643.60 224.98 603.96 154.75 Z" />
<path fill="#ff00ff" opacity="1.00" d=" M 432.08 239.95 C 432.62 238.39 433.75 240.26 434.03 240.86 C 441.71 254.52 449.53 268.11 457.22 281.77 C 458.15 283.10 457.54 284.68 456.78 285.92 C 436.04 322.48 415.38 359.09 394.63 395.66 C 390.32 403.62 385.33 411.24 381.53 419.47 C 378.18 419.47 374.82 419.44 371.47 419.37 C 374.22 413.70 377.55 408.34 380.60 402.83 C 402.72 363.84 424.78 324.82 446.88 285.82 C 447.91 284.38 447.94 282.56 446.94 281.11 C 440.63 270.00 434.26 258.93 428.02 247.79 C 428.68 244.89 430.53 242.44 432.08 239.95 Z" />
<path fill="#ff00ff" opacity="1.00" d=" M 490.76 420.42 C 504.84 420.22 518.92 420.68 533.01 420.60 C 534.36 420.67 536.27 420.30 536.79 422.00 C 542.82 432.67 548.90 443.31 554.94 453.98 C 556.99 457.71 559.46 461.25 560.91 465.29 C 557.64 465.27 554.37 465.25 551.10 465.25 C 543.24 450.22 534.44 435.68 526.17 420.87 C 514.37 420.66 502.56 420.61 490.76 420.42 Z" />
</g>
</svg>
